<svg xmlns="http://www.w3.org/2000/svg" xmlns:xlink="http://www.w3.org/1999/xlink" viewBox="0 0 33 27"><defs><style>.cls-1,.cls-2{fill:none;}.cls-1{clip-rule:evenodd;}.cls-3{clip-path:url(#clip-path);}.cls-4{clip-path:url(#clip-path-2);}.cls-5{fill:#89888c;}</style><clipPath id="clip-path" transform="translate(1 1)"><path class="cls-1" d="M31,3a12.8,12.8,0,0,1-3.65,1A6.33,6.33,0,0,0,30.14.46,12.71,12.71,0,0,1,26.1,2a6.37,6.37,0,0,0-11,4.32,6.24,6.24,0,0,0,.17,1.44A18.09,18.09,0,0,1,2.16,1.15a6.29,6.29,0,0,0,2,8.43,6.32,6.32,0,0,1-2.88-.79.22.22,0,0,0,0,.08,6.33,6.33,0,0,0,5.11,6.19,6.67,6.67,0,0,1-1.68.22,6.78,6.78,0,0,1-1.2-.11,6.36,6.36,0,0,0,5.95,4.38,12.85,12.85,0,0,1-7.9,2.7A12.66,12.66,0,0,1,0,22.16,18,18,0,0,0,9.75,25,17.9,17.9,0,0,0,27.84,7c0-.27,0-.54,0-.81A12.8,12.8,0,0,0,31,3"/></clipPath><clipPath id="clip-path-2" transform="translate(1 1)"><rect class="cls-2" x="-1256" y="-4422" width="1600" height="4570"/></clipPath></defs><g id="Layer_2" data-name="Layer 2"><g id="Layer_1-2" data-name="Layer 1"><g class="cls-3"><g class="cls-4"><rect class="cls-5" width="33" height="27"/></g></g></g></g></svg>