<svg xmlns="http://www.w3.org/2000/svg" xmlns:xlink="http://www.w3.org/1999/xlink" viewBox="0 0 66 66"><defs><style>.cls-1,.cls-2{fill:none;}.cls-2{clip-rule:evenodd;}.cls-3{clip-path:url(#clip-path);}.cls-4{isolation:isolate;}.cls-5{clip-path:url(#clip-path-2);}.cls-6{clip-path:url(#clip-path-3);}.cls-7{fill:#0080ff;}.cls-8{clip-path:url(#clip-path-5);}.cls-9{clip-path:url(#clip-path-6);}.cls-10{fill:#fff;}</style><clipPath id="clip-path" transform="translate(1 1)"><rect class="cls-1" width="64" height="64"/></clipPath><clipPath id="clip-path-2" transform="translate(1 1)"><rect class="cls-1" y="-0.88" width="64" height="65"/></clipPath><clipPath id="clip-path-3" transform="translate(1 1)"><path class="cls-2" d="M64,32A32,32,0,1,1,32,0,32,32,0,0,1,64,32"/></clipPath><clipPath id="clip-path-5" transform="translate(1 1)"><path class="cls-2" d="M32,16.91c-8.28,0-15,6.25-15,14a13.63,13.63,0,0,0,5.59,10.89v5.32l5.11-2.82a16,16,0,0,0,4.3.59c8.28,0,15-6.26,15-14S40.28,16.91,32,16.91Zm1.49,18.82-3.82-4.1-7.45,4.1L30.42,27l3.91,4.1L41.69,27Z"/></clipPath><clipPath id="clip-path-6" transform="translate(1 1)"><rect class="cls-1" x="-151" y="-3126.88" width="1600" height="4570"/></clipPath></defs><g id="Layer_2" data-name="Layer 2"><g id="Layer_1-2" data-name="Layer 1"><g class="cls-3"><g class="cls-4"><g class="cls-5"><g class="cls-6"><g class="cls-5"><rect class="cls-7" width="66" height="66"/></g></g></g></g></g><g class="cls-8"><g class="cls-9"><rect class="cls-10" x="17" y="16.91" width="32" height="32.19"/></g></g></g></g></svg>