<svg xmlns="http://www.w3.org/2000/svg" xmlns:xlink="http://www.w3.org/1999/xlink" viewBox="0 0 66 66"><defs><style>.cls-1,.cls-2{fill:none;}.cls-2{clip-rule:evenodd;}.cls-3{clip-path:url(#clip-path);}.cls-4{isolation:isolate;}.cls-5{clip-path:url(#clip-path-2);}.cls-6{clip-path:url(#clip-path-3);}.cls-7{fill:#00c169;}.cls-8{clip-path:url(#clip-path-5);}.cls-9{clip-path:url(#clip-path-6);}.cls-10{fill:#fff;}</style><clipPath id="clip-path" transform="translate(1 1)"><rect class="cls-1" width="64" height="64"/></clipPath><clipPath id="clip-path-2" transform="translate(1 1)"><rect class="cls-1" x="-0.2" width="65" height="64"/></clipPath><clipPath id="clip-path-3" transform="translate(1 1)"><path class="cls-2" d="M64,32A32,32,0,1,1,32,0,32,32,0,0,1,64,32"/></clipPath><clipPath id="clip-path-5" transform="translate(1 1)"><path class="cls-2" d="M39.18,35c-.37-.21-2.19-1.18-2.53-1.32s-.58-.21-.85.16-1,1.18-1.24,1.42-.45.27-.82.07a10.59,10.59,0,0,1-3-2,11.56,11.56,0,0,1-2-2.68c-.21-.39,0-.58.2-.77s.39-.42.58-.63a2.27,2.27,0,0,0,.4-.62A.68.68,0,0,0,30,28c-.09-.2-.77-2.07-1.06-2.84s-.6-.65-.82-.66-.47-.05-.72-.06a1.41,1.41,0,0,0-1,.44,4.19,4.19,0,0,0-1.43,3.08,7.32,7.32,0,0,0,1.39,3.95c.18.26,2.44,4.27,6.2,5.91S36.3,38.93,37,38.89A3.78,3.78,0,0,0,39.6,37.2a3.16,3.16,0,0,0,.28-1.78c-.09-.16-.33-.26-.7-.46m-6.91,8.91a12.16,12.16,0,0,1-6.74-2l-4.71,1.51,1.53-4.55a12.25,12.25,0,1,1,9.92,5.07m0-27A14.72,14.72,0,0,0,19.66,39.21L17,47.12l8.15-2.61a14.73,14.73,0,1,0,7.12-27.63"/></clipPath><clipPath id="clip-path-6" transform="translate(1 1)"><rect class="cls-1" x="-226.2" y="-3125" width="1600" height="4570"/></clipPath></defs><g id="Layer_2" data-name="Layer 2"><g id="Layer_1-2" data-name="Layer 1"><g class="cls-3"><g class="cls-4"><g class="cls-5"><g class="cls-6"><g class="cls-5"><rect class="cls-7" width="66" height="66"/></g></g></g></g></g><g class="cls-8"><g class="cls-9"><rect class="cls-10" x="17" y="16.88" width="32" height="32.23"/></g></g></g></g></svg>