<svg xmlns="http://www.w3.org/2000/svg" xmlns:xlink="http://www.w3.org/1999/xlink" viewBox="0 0 24.5 24.75"><defs><style>.cls-1{fill:none;}.cls-2{clip-path:url(#clip-path);}.cls-3{clip-path:url(#clip-path-2);}.cls-4{fill:#89888c;}</style><clipPath id="clip-path" transform="translate(1 1)"><path class="cls-1" d="M8.78,2.3A6.54,6.54,0,0,0,2.3,8.91a6.55,6.55,0,0,0,6.48,6.61,6.54,6.54,0,0,0,6.47-6.61A6.54,6.54,0,0,0,8.78,2.3Zm0-2.3a8.84,8.84,0,0,1,8.77,8.91,8.93,8.93,0,0,1-1.78,5.38l6.73,6.85-1.64,1.61-6.69-6.81a8.65,8.65,0,0,1-5.39,1.88A8.85,8.85,0,0,1,0,8.91,8.85,8.85,0,0,1,8.78,0Z"/></clipPath><clipPath id="clip-path-2" transform="translate(1 1)"><rect class="cls-1" x="-1490.85" y="-83.85" width="1600" height="4570"/></clipPath></defs><g id="Layer_2" data-name="Layer 2"><g id="Layer_1-2" data-name="Layer 1"><g class="cls-2"><g class="cls-3"><rect class="cls-4" width="24.5" height="24.75"/></g></g></g></g></svg>