<svg xmlns="http://www.w3.org/2000/svg" xmlns:xlink="http://www.w3.org/1999/xlink" viewBox="0 0 207.98 36.91"><defs><style>.cls-1,.cls-2{fill:none;}.cls-2{clip-rule:evenodd;}.cls-3{clip-path:url(#clip-path);}.cls-4{isolation:isolate;}.cls-5{clip-path:url(#clip-path-2);}.cls-6{clip-path:url(#clip-path-3);}.cls-7{fill:#e20000;}.cls-8{clip-path:url(#clip-path-5);}.cls-9{clip-path:url(#clip-path-6);}.cls-10{clip-path:url(#clip-path-7);}.cls-11{clip-path:url(#clip-path-9);}.cls-12{clip-path:url(#clip-path-10);}.cls-13{clip-path:url(#clip-path-11);}.cls-14{fill:#2c2c2d;}.cls-15{clip-path:url(#clip-path-13);}.cls-16{clip-path:url(#clip-path-14);}.cls-17{clip-path:url(#clip-path-15);}.cls-18{clip-path:url(#clip-path-17);}.cls-19{clip-path:url(#clip-path-18);}.cls-20{clip-path:url(#clip-path-19);}.cls-21{clip-path:url(#clip-path-21);}.cls-22{clip-path:url(#clip-path-22);}.cls-23{clip-path:url(#clip-path-23);}</style><clipPath id="clip-path" transform="translate(1.08 1)"><rect class="cls-1" width="19.87" height="27.81"/></clipPath><clipPath id="clip-path-2" transform="translate(1.08 1)"><rect class="cls-1" y="-0.09" width="20" height="28"/></clipPath><clipPath id="clip-path-3" transform="translate(1.08 1)"><path class="cls-2" d="M9.42,0h8.46a2.06,2.06,0,0,1,1.77,3L8.07,26.68a2,2,0,0,1-3.57-.05L.19,17.13a2.13,2.13,0,0,1,0-1.86L7.67,1.08A2,2,0,0,1,9.42,0"/></clipPath><clipPath id="clip-path-5" transform="translate(1.08 1)"><rect class="cls-1" x="12.15" width="27.83" height="33.8"/></clipPath><clipPath id="clip-path-6" transform="translate(1.08 1)"><rect class="cls-1" x="12" y="-0.09" width="28" height="34"/></clipPath><clipPath id="clip-path-7" transform="translate(1.08 1)"><path class="cls-2" d="M29.91,0H38a2,2,0,0,1,1.77,3L24.35,32.3a2.78,2.78,0,0,1-2.46,1.5H14.15a2,2,0,0,1-1.77-2.94L27.43,1.52A2.79,2.79,0,0,1,29.91,0"/></clipPath><clipPath id="clip-path-9" transform="translate(1.08 1)"><rect class="cls-1" x="87.18" width="28.65" height="34.9"/></clipPath><clipPath id="clip-path-10" transform="translate(1.08 1)"><rect class="cls-1" x="87" y="-0.09" width="29" height="35"/></clipPath><clipPath id="clip-path-11" transform="translate(1.08 1)"><path class="cls-2" d="M95.05,24.18a1.64,1.64,0,0,1,1.48,1l.15.29a4,4,0,0,0,1,1.12,5.18,5.18,0,0,0,1.63.81,8,8,0,0,0,2.24.29,7.16,7.16,0,0,0,2.7-.41,3.15,3.15,0,0,0,1.47-1.08,2.58,2.58,0,0,0,.46-1.47A2.17,2.17,0,0,0,105,22.64a13.54,13.54,0,0,0-3.6-1.08l-4.28-.79a16.72,16.72,0,0,1-4.91-1.69,8.54,8.54,0,0,1-3.37-3.18,9.61,9.61,0,0,1-1.22-5.05A9.79,9.79,0,0,1,89.33,5a10.88,10.88,0,0,1,4.87-3.7A18.91,18.91,0,0,1,101.47,0a17.13,17.13,0,0,1,7.68,1.52,10.77,10.77,0,0,1,4.5,3.92,10.07,10.07,0,0,1,1.29,3.11,1.6,1.6,0,0,1-1.58,1.93h-5.92a1.63,1.63,0,0,1-1.48-1,5.07,5.07,0,0,0-.33-.59,4,4,0,0,0-1.56-1.28,5.71,5.71,0,0,0-2.6-.52A4.75,4.75,0,0,0,98.35,8a2.65,2.65,0,0,0-1,2.09,2,2,0,0,0,1.2,1.84,9.83,9.83,0,0,0,3.28,1l4.5.74a16.12,16.12,0,0,1,4.61,1.46,8.93,8.93,0,0,1,3.53,3.1,9.62,9.62,0,0,1,1.37,5.43,10.65,10.65,0,0,1-1.6,5.79,10.9,10.9,0,0,1-4.82,4,19.64,19.64,0,0,1-8.09,1.46A21.1,21.1,0,0,1,94.57,34a12,12,0,0,1-4.39-2.49A9.29,9.29,0,0,1,87.77,28a12.55,12.55,0,0,1-.56-1.94,1.61,1.61,0,0,1,1.59-1.91Z"/></clipPath><clipPath id="clip-path-13" transform="translate(1.08 1)"><path class="cls-2" d="M121,33.29V2.52A1.62,1.62,0,0,1,122.64.91h6.72A1.62,1.62,0,0,1,131,2.52V33.29a1.63,1.63,0,0,1-1.64,1.62h-6.72A1.63,1.63,0,0,1,121,33.29"/></clipPath><clipPath id="clip-path-14" transform="translate(1.08 1)"><rect class="cls-1" x="-77" y="-77.09" width="1600" height="4570"/></clipPath><clipPath id="clip-path-15" transform="translate(1.08 1)"><path class="cls-2" d="M136,33.29V2.52A1.61,1.61,0,0,1,137.61.91h7.57a1.62,1.62,0,0,1,1.46.92l7.21,15.39h.35l7.24-15.39a1.6,1.6,0,0,1,1.45-.92h7.5A1.61,1.61,0,0,1,172,2.52V33.29a1.62,1.62,0,0,1-1.61,1.62h-5.6a1.62,1.62,0,0,1-1.6-1.62V15.35h-.45l-6.13,13.48h-5.29l-6.18-13.48h-.48V33.29a1.61,1.61,0,0,1-1.6,1.62h-5.45A1.62,1.62,0,0,1,136,33.29"/></clipPath><clipPath id="clip-path-17" transform="translate(1.08 1)"><rect class="cls-1" x="178.06" width="27.85" height="34.9"/></clipPath><clipPath id="clip-path-18" transform="translate(1.08 1)"><rect class="cls-1" x="178" y="-0.09" width="28" height="35"/></clipPath><clipPath id="clip-path-19" transform="translate(1.08 1)"><path class="cls-2" d="M185.71,24.18a1.6,1.6,0,0,1,1.44,1c0,.1.09.19.14.29a4,4,0,0,0,1,1.12,4.8,4.8,0,0,0,1.58.81,7.52,7.52,0,0,0,2.18.29,6.78,6.78,0,0,0,2.62-.41,3.07,3.07,0,0,0,1.43-1.08,2.72,2.72,0,0,0,.44-1.47,2.17,2.17,0,0,0-1.19-2.06,13,13,0,0,0-3.5-1.08l-4.16-.79a15.92,15.92,0,0,1-4.77-1.69,8.43,8.43,0,0,1-3.28-3.18,9.91,9.91,0,0,1-1.19-5.05A10,10,0,0,1,180.15,5a10.58,10.58,0,0,1,4.73-3.7A18,18,0,0,1,192,0a16.23,16.23,0,0,1,7.46,1.52,10.6,10.6,0,0,1,4.38,3.92A10.2,10.2,0,0,1,205,8.55a1.59,1.59,0,0,1-1.54,1.93h-5.75a1.57,1.57,0,0,1-1.44-1,3.83,3.83,0,0,0-.32-.59,3.93,3.93,0,0,0-1.51-1.28A5.45,5.45,0,0,0,192,7.12a4.56,4.56,0,0,0-3,.85,2.69,2.69,0,0,0-1,2.09,2.05,2.05,0,0,0,1.17,1.84,9.32,9.32,0,0,0,3.19,1l4.38.74a15.33,15.33,0,0,1,4.47,1.46,8.73,8.73,0,0,1,3.43,3.1,9.79,9.79,0,0,1,1.33,5.43,10.23,10.23,0,0,1-6.24,9.79,18.6,18.6,0,0,1-7.86,1.46,20,20,0,0,1-6.56-.93A11.56,11.56,0,0,1,181,31.49,9.32,9.32,0,0,1,178.63,28a11.45,11.45,0,0,1-.54-1.94,1.59,1.59,0,0,1,1.54-1.91Z"/></clipPath><clipPath id="clip-path-21" transform="translate(1.08 1)"><rect class="cls-1" x="51.14" width="29.83" height="34.9"/></clipPath><clipPath id="clip-path-22" transform="translate(1.08 1)"><rect class="cls-1" x="51" y="-0.09" width="30" height="35"/></clipPath><clipPath id="clip-path-23" transform="translate(1.08 1)"><path class="cls-2" d="M69.3,25a5.43,5.43,0,0,0,1.3-4V1.6A1.59,1.59,0,0,1,72.17,0H79.4A1.59,1.59,0,0,1,81,1.6V22.46a11.4,11.4,0,0,1-7,10.91,19,19,0,0,1-8,1.54,19,19,0,0,1-8-1.54A11.75,11.75,0,0,1,52.94,29a11.9,11.9,0,0,1-1.8-6.57V1.6A1.59,1.59,0,0,1,52.71,0h7.23a1.59,1.59,0,0,1,1.57,1.6V21c0,1.9.43,3.25,1.3,4.06a4.9,4.9,0,0,0,6.49,0"/></clipPath></defs><g id="Layer_2" data-name="Layer 2"><g id="Layer_1-2" data-name="Layer 1"><g class="cls-3"><g class="cls-4"><g class="cls-5"><g class="cls-6"><g class="cls-5"><rect class="cls-7" width="22.4" height="30.21"/></g></g></g></g></g><g class="cls-8"><g class="cls-4"><g class="cls-9"><g class="cls-10"><g class="cls-9"><rect class="cls-7" x="11.77" width="30.75" height="35.8"/></g></g></g></g></g><g class="cls-11"><g class="cls-4"><g class="cls-12"><g class="cls-13"><g class="cls-12"><rect class="cls-14" x="87.1" width="30.81" height="36.9"/></g></g></g></g></g><g class="cls-15"><g class="cls-16"><rect class="cls-14" x="121.08" y="0.91" width="12" height="36"/></g></g><g class="cls-17"><g class="cls-16"><rect class="cls-14" x="136.08" y="0.91" width="38" height="36"/></g></g><g class="cls-18"><g class="cls-4"><g class="cls-19"><g class="cls-20"><g class="cls-19"><rect class="cls-14" x="177.98" width="30" height="36.9"/></g></g></g></g></g><g class="cls-21"><g class="cls-4"><g class="cls-22"><g class="cls-23"><g class="cls-22"><rect class="cls-14" x="51.22" width="31.83" height="36.91"/></g></g></g></g></g></g></g></svg>